{"title":"FlashForward.S01.COMPLETE.720p.HDTV.x264","uid":10578644,"size":25811702335,"categoryP":"video","categoryS":"hd___tv_shows","magnet":"?xt=urn:btih:3fae95628d1448d847a1db433ef4b36d094ee6a5&amp;dn=FlashForward.S01.COMPLETE.720p.HDTV.x264&amp;tr=udp%3A%2F%2Ftracker.openbittorrent.com%3A80&amp;tr=udp%3A%2F%2Fopen.demonii.com%3A1337&amp;tr=udp%3A%2F%2Ftracker.coppersurfer.tk%3A6969&amp;tr=udp%3A%2F%2Fexodus.desync.com%3A6969","seeders":2,"leechers":2,"uploader":"ra1961","files":21,"time":1405656424,"description":"[IMG]http://lookpic.com/O/i2/1812/wEiIwvSk.jpeg[/IMG]\n\nComplete season 1 of tv series FlashForward\n\nTV Series  -  60 min  -  Drama | Mystery | Sci-Fi\n &lt;a href=&quot;\nhttp://www.imdb.com/title/tt1441135/&quot; rel=&quot;nofollow&quot; target=&quot;_NEW&quot;&gt;\nhttp://www.imdb.com/title/tt1441135/&lt;/a&gt;\n\nA special task force in the FBI investigates after every person on Earth simultaneously blackouts and awakens with a short vision of their future.\n\nThis Pack Contains all the HDTV episodes released by scene groups (2009/2010):\n\nFlashForward.S01E01.720p.HDTV.x264-CTU\nFlashForward.S01E02.720p.HDTV.x264-CTU\nFlashForward.S01E03.720p.HDTV.x264-CTU\nFlashforward.S01E04.720p.HDTV.x264-RED\nFlashforward.S01E05.720p.HDTV.x264-RED\nFlashforward.S01E06.720p.HDTV.x264-CTU\nFlashForward.S01E07.720p.HDTV.x264-CTU\nFlashForward.S01E08.720p.HDTV.x264-CTU\nFlashForward.S01E09.720p.HDTV.x264-CTU\nFlashForward.S01E10.720p.HDTV.x264-BiA\nFlashForward.S01E11-E12.REPACK.720p.HDTV.x264-2HD\nFlashForward.S01E13.720p.HDTV.x264-CTU\nFlashForward.S01E14.720p.hdtv.x264-CTU\nFlashForward.S01E15.720p.HDTV.x264-IMMERSE\nFlashForward.S01E16.720p.HDTV.x264-CTU\nFlashForward.S01E17.720p.HDTV.x264-IMMERSE\nFlashForward.S01E18.720p.HDTV.x264-CTU\nFlashForward.S01E19.720p.HDTV.x264-CTU\nFlashForward.S01E20.720p.HDTV.x264-CTU\nFlashForward.S01E21.720p.HDTV.x264-CTU\nFlashForward.S01E22.720p.HDTV.x264-CTU\n\n\n\ninfo:\n\nFormat                                   : Matroska\nFormat version                           : Version 1\nFile size                                : 1.09 GiB\nDuration                                 : 45mn 20s\nOverall bit rate                         : 3 450 Kbps\nEncoded date                             : UTC 2009-09-25 \n\n\nVideo\nID                                       : 2\nFormat                                   : AVC\nFormat/Info                              : Advanced Video Codec\nFormat profile                           : &lt;a class=&quot;__cf_email__&quot; href=&quot;/cdn-cgi/l/email-protection&quot; data-cfemail=&quot;eaa2838d82aaa6d9c4db&quot;&gt;[email&amp;#160;protected]&lt;/a&gt;&lt;script cf-hash='f9e31' type=&quot;text/javascript&quot;&gt;\n/* &lt;![CDATA[ */!function(){try{var t=&quot;currentScript&quot;in document?document.currentScript:function(){for(var t=document.getElementsByTagName(&quot;script&quot;),e=t.length;e--;)if(t[e].getAttribute(&quot;cf-hash&quot;))return t[e]}();if(t&amp;&amp;t.previousSibling){var e,r,n,i,c=t.previousSibling,a=c.getAttribute(&quot;data-cfemail&quot;);if(a){for(e=&quot;&quot;,r=parseInt(a.substr(0,2),16),n=2;a.length-n;n+=2)i=parseInt(a.substr(n,2),16)^r,e+=String.fromCharCode(i);e=document.createTextNode(e),c.parentNode.replaceChild(e,c)}}}catch(u){}}();/* ]]&gt; */&lt;/script&gt;\nFormat settings, CABAC                   : Yes\nFormat settings, ReFrames                : 3 frames\nCodec ID                                 : V_MPEG4/ISO/AVC\nDuration                                 : 45mn 20s\nBit rate                                 : 2 999 Kbps\nWidth                                    : 1 280 pixels\nHeight                                   : 720 pixels\nDisplay aspect ratio                     : 16:9\nFrame rate mode                          : Constant\nFrame rate                               : 23.976 fps\nColor space                              : YUV\nChroma subsampling                       : 4:2:0\nBit depth                                : 8 bits\nScan type                                : Progressive\nBits/(Pixel*Frame)                       : 0.136\nStream size                              : 951 MiB (85%)\nWriting library                          : x264 core 68 r1184tw\n\nLanguage                                 : English\nDefault                                  : Yes\nForced                                   : No\n\nAudio\nID                                       : 1\nFormat                                   : AC-3\nFormat/Info                              : Audio Coding 3\nMode extension                           : CM (complete main)\nFormat settings, Endianness              : Big\nCodec ID                                 : A_AC3\nDuration                                 : 45mn 20s\nBit rate mode                            : Constant\nBit rate                                 : 448 Kbps\nChannel(s)                               : 6 channels\nChannel positions                        : Front: L C R, Side: L R, LFE\nSampling rate                            : 48.0 KHz\nBit depth                                : 16 bits\nCompression mode                         : Lossy\nStream size                              : 145 MiB (13%)\nDefault                                  : Yes\nForced                                   : No\n\nScreens: &lt;a href=&quot;\nhttp://lookpic.com/O/i2/403/2mjZFeiQ.png&quot; rel=&quot;nofollow&quot; target=&quot;_NEW&quot;&gt;\nhttp://lookpic.com/O/i2/403/2mjZFeiQ.png&lt;/a&gt; &lt;a href=&quot;\nhttp://lookpic.com/O/i2/1794/1FUbYUg2.png&quot; rel=&quot;nofollow&quot; target=&quot;_NEW&quot;&gt;\nhttp://lookpic.com/O/i2/1794/1FUbYUg2.png&lt;/a&gt; &lt;a href=&quot;\nhttp://lookpic.com/O/i2/1351/6Y7nNdML.png&quot; rel=&quot;nofollow&quot; target=&quot;_NEW&quot;&gt;\nhttp://lookpic.com/O/i2/1351/6Y7nNdML.png&lt;/a&gt;","torrent":{"xt":"urn:btih:3fae95628d1448d847a1db433ef4b36d094ee6a5","amp;dn":"FlashForward.S01.COMPLETE.720p.HDTV.x264","amp;tr":["udp%3A%2F%2Ftracker.openbittorrent.com%3A80","udp%3A%2F%2Fopen.demonii.com%3A1337","udp%3A%2F%2Ftracker.coppersurfer.tk%3A6969","udp%3A%2F%2Fexodus.desync.com%3A6969"],"infoHash":"3fae95628d1448d847a1db433ef4b36d094ee6a5","infoHashBuffer":{"type":"Buffer","data":[63,174,149,98,141,20,72,216,71,161,219,67,62,244,179,109,9,78,230,165]},"announce":[],"urlList":[]}}